<?xml version="1.0" encoding="UTF-8"?>
<svg version="1.1" xmlns="http://www.w3.org/2000/svg" width="256" height="256">
<path d="M0 0 C0.81320709 -0.00016617 1.62641418 -0.00033234 2.46426392 -0.00050354 C3.38887421 -0.00988449 4.3134845 -0.01926544 5.26611328 -0.02893066 C6.76146103 -0.0120797 6.76146103 -0.0120797 8.28701782 0.00511169 C9.31412872 0.00365646 10.34123962 0.00220123 11.3994751 0.0007019 C13.57328118 0.00236262 15.74709882 0.01394308 17.92080688 0.03465271 C21.24390845 0.06353447 24.56540803 0.0552792 27.88858032 0.04222107 C30.00056723 0.04846066 32.1125491 0.05685332 34.22451782 0.06761169 C35.21736786 0.06467606 36.2102179 0.06174042 37.2331543 0.05871582 C43.91188701 0.14971687 47.48671591 1.03613407 52.26358032 5.93870544 C53.88858032 8.50120544 53.88858032 8.50120544 53.70108032 10.75120544 C52.88858032 12.50120544 52.88858032 12.50120544 51.88858032 13.50120544 C50.36266924 13.60977198 48.83228014 13.65696225 47.30264282 13.67698669 C46.3719397 13.70083435 45.44123657 13.72468201 44.48233032 13.74925232 C42.51119297 13.79204675 40.53977213 13.82339187 38.56826782 13.84300232 C37.16834595 13.88457458 37.16834595 13.88457458 35.74014282 13.92698669 C34.88243286 13.94156921 34.0247229 13.95615173 33.14102173 13.97117615 C30.30879908 14.3835579 30.30879908 14.3835579 27.88858032 18.50120544 C28.87858032 23.45120544 28.87858032 23.45120544 29.88858032 28.50120544 C55.29858032 28.17120544 80.70858032 27.84120544 106.88858032 27.50120544 C105.89858032 24.86120544 104.90858032 22.22120544 103.88858032 19.50120544 C103.57608032 16.62620544 103.57608032 16.62620544 103.88858032 14.50120544 C106.79017646 11.59960931 109.81411006 12.16582725 113.70498657 12.12229919 C114.47664658 12.10530472 115.24830658 12.08831024 116.04335022 12.07080078 C118.51251011 12.01758593 120.98165242 11.97733149 123.45108032 11.93870544 C125.923993 11.89483312 128.39677259 11.84818071 130.86952209 11.79589844 C132.40967351 11.76384906 133.94994285 11.73698802 135.49028015 11.71566772 C138.98268887 11.96175245 138.98268887 11.96175245 141.88858032 10.50120544 C146.77336444 9.94005322 150.75004067 9.94267656 155.20108032 12.12620544 C159.55528853 15.97411037 163.46987886 19.63679687 164.12686157 25.70042419 C164.31156337 31.89279504 163.50759084 36.39201412 159.88858032 41.50120544 C155.2215123 46.29441044 149.79125765 47.55090591 143.26358032 47.87620544 C140.02696534 47.78768264 138.79468196 47.45138182 135.82608032 45.87620544 C133.88858032 43.50120544 133.88858032 43.50120544 133.32608032 40.50120544 C133.88858032 37.50120544 133.88858032 37.50120544 135.32608032 35.18870544 C138.54007133 33.07217478 141.07844333 32.89714364 144.86514282 32.67698669 C146.95708764 32.62033758 146.95708764 32.62033758 148.88858032 31.50120544 C148.88858032 29.19120544 148.88858032 26.88120544 148.88858032 24.50120544 C147.75420532 24.35683044 146.61983032 24.21245544 145.45108032 24.06370544 C141.88858032 23.50120544 141.88858032 23.50120544 140.88858032 22.50120544 C139.03488421 22.41382899 137.17790491 22.39422391 135.32217407 22.40354919 C134.19746704 22.40677185 133.07276001 22.40999451 131.91397095 22.41331482 C130.72996704 22.42169373 129.54596313 22.43007263 128.32608032 22.43870544 C127.13820923 22.44321716 125.95033813 22.44772888 124.72647095 22.45237732 C121.78045806 22.4642087 118.83454352 22.48069258 115.88858032 22.50120544 C117.71816327 27.46873369 119.55131892 32.43492263 121.3878479 37.39988708 C122.01253902 39.09027558 122.63623969 40.78103044 123.25894165 42.47215271 C124.15243625 44.8981647 125.04944556 47.32285127 125.94717407 49.74729919 C126.22637192 50.50772018 126.50556976 51.26814117 126.79322815 52.05160522 C127.88761716 55.54104495 127.88761716 55.54104495 129.88858032 58.50120544 C131.55536648 58.16847015 133.22199987 57.83496954 134.88858032 57.50120544 C151.33044699 56.3917432 165.24615412 59.85548951 178.01358032 70.62620544 C188.37402756 80.3592343 193.8807153 92.06634862 194.35928345 106.22483826 C194.52501675 121.93083054 190.51814405 134.67082595 179.51358032 146.31370544 C167.8424394 157.15489856 154.61076571 160.96276174 138.96670532 160.71604919 C123.59979565 160.14387703 112.19855647 152.15069424 101.88076782 141.41136169 C92.95173115 131.03280608 89.94852509 116.9012655 90.88858032 103.50120544 C93.47261691 86.57271381 101.28194989 75.06098727 114.94326782 64.87620544 C116.57299596 63.72426909 118.22802572 62.60824185 119.88858032 61.50120544 C118.23858032 57.54120544 116.58858032 53.58120544 114.88858032 49.50120544 C105.65627681 59.35953709 105.65627681 59.35953709 96.68545532 69.45433044 C94.3349255 72.1318905 91.92517871 74.75381306 89.51358032 77.37620544 C88.5643487 78.41004779 87.61512989 79.44390191 86.66592407 80.47776794 C84.90946255 82.39048097 83.15147759 84.30175208 81.39248657 86.21214294 C74.49489994 93.37476541 74.49489994 93.37476541 68.88858032 101.50120544 C69.21858032 102.49120544 69.54858032 103.48120544 69.88858032 104.50120544 C70.44946828 110.16401656 70.23699407 114.7018124 66.88858032 119.50120544 C61.73068559 123.50120544 61.73068559 123.50120544 58.88858032 123.50120544 C58.88858032 127.13120544 58.88858032 130.76120544 58.88858032 134.50120544 C61.19858032 134.83120544 63.50858032 135.16120544 65.88858032 135.50120544 C66.57608032 137.81370544 66.57608032 137.81370544 66.88858032 140.50120544 C65.3778267 142.52600144 64.43213614 143.38387161 61.94326782 143.92112732 C59.59046028 143.97383358 57.2420612 144.00860633 54.88858032 144.00120544 C54.06873657 144.02956482 53.24889282 144.05792419 52.40420532 144.08714294 C50.11975751 144.09460846 48.11174526 144.02943678 45.88858032 143.50120544 C43.76358032 141.15745544 43.76358032 141.15745544 42.88858032 138.50120544 C43.21858032 137.51120544 43.54858032 136.52120544 43.88858032 135.50120544 C46.19858032 135.17120544 48.50858032 134.84120544 50.88858032 134.50120544 C50.88858032 130.87120544 50.88858032 127.24120544 50.88858032 123.50120544 C49.23858032 122.84120544 47.58858032 122.18120544 45.88858032 121.50120544 C43.07608032 118.87620544 43.07608032 118.87620544 40.88858032 116.50120544 C40.46899048 118.05968201 40.46899048 118.05968201 40.04092407 119.64964294 C37.58173972 128.36828375 34.89615178 135.52588712 28.88858032 142.50120544 C28.29303345 143.20632263 27.69748657 143.91143982 27.08389282 144.63792419 C17.45719885 155.12343112 5.08609332 160.2937672 -8.99301147 160.90110779 C-24.52017965 161.18506265 -37.54274728 155.54339768 -48.75204468 145.01292419 C-59.3154946 133.76739721 -62.74113201 121.29361085 -62.5821228 106.22483826 C-62.12831102 92.79876848 -57.02606824 81.61913639 -47.86141968 71.75120544 C-36.26398117 61.02807494 -22.59129956 56.56551591 -6.97860718 57.16136169 C-1.489821 57.64370957 3.64639447 58.83323722 8.88858032 60.50120544 C9.11158813 59.71616638 9.33459595 58.93112732 9.56436157 58.12229919 C10.65181862 55.14863347 11.83409908 52.57134509 13.30654907 49.78636169 C13.75578735 48.93493591 14.20502563 48.08351013 14.6678772 47.20628357 C15.60766731 45.44271072 16.55824627 43.68484545 17.5194397 41.93284607 C21.0714382 35.13213114 21.10848099 31.44794289 18.82608032 24.06370544 C18.51670532 23.21808044 18.20733032 22.37245544 17.88858032 21.50120544 C17.0197522 21.47542419 16.15092407 21.44964294 15.25576782 21.42308044 C3.46481908 20.84276529 3.46481908 20.84276529 -1.11141968 16.50120544 C-3.6924932 13.37674802 -4.98569384 11.39924716 -5.54891968 7.37620544 C-4.98007977 3.63811465 -3.90848954 0.92779103 0 0 Z M33.88858032 36.50120544 C34.59375549 40.02708129 35.29458008 42.88841137 36.51504517 46.1962738 C36.84563934 47.09748459 37.17623352 47.99869537 37.5168457 48.92721558 C37.8741275 49.88878067 38.2314093 50.85034576 38.59951782 51.84104919 C38.96832062 52.84076248 39.33712341 53.84047577 39.71710205 54.8704834 C40.49704654 56.98170817 41.27885924 59.09224359 42.06240845 61.20213318 C43.25723575 64.42160991 44.44441152 67.64383338 45.63076782 70.86643982 C46.39072586 72.92064601 47.15112791 74.974688 47.91201782 77.02854919 C48.26525116 77.98809006 48.6184845 78.94763092 48.98242188 79.93624878 C51.52763274 86.9066409 51.52763274 86.9066409 54.88858032 93.50120544 C58.08695269 95.18059139 58.08695269 95.18059139 61.88858032 94.50120544 C65.00811063 92.25592351 67.39246851 89.46866315 69.88858032 86.56370544 C70.56147095 85.81540466 71.23436157 85.06710388 71.92764282 84.29612732 C73.93821567 82.05072888 75.91677415 79.78067283 77.88858032 77.50120544 C82.00076597 72.78080385 86.14012715 68.09953123 90.38858032 63.50120544 C94.0218379 59.55641982 97.60563556 55.57660889 101.11904907 51.52464294 C104.66108774 47.47436473 108.28110126 43.49315506 111.88858032 39.50120544 C111.39358032 38.01620544 111.39358032 38.01620544 110.88858032 36.50120544 C85.47858032 36.50120544 60.06858032 36.50120544 33.88858032 36.50120544 Z M25.88858032 44.50120544 C22.58858032 51.10120544 19.28858032 57.70120544 15.88858032 64.50120544 C18.36358032 66.48120544 18.36358032 66.48120544 20.88858032 68.50120544 C31.87488626 78.50927866 37.68422647 88.64386051 39.88858032 103.50120544 C40.50733032 102.69683044 41.12608032 101.89245544 41.76358032 101.06370544 C43.88858032 98.50120544 43.88858032 98.50120544 45.88858032 97.50120544 C44.59393849 91.07497925 42.81804093 85.13095008 40.48233032 79.01292419 C40.15696289 78.14730362 39.83159546 77.28168304 39.49636841 76.38983154 C38.81337605 74.57619362 38.12750664 72.76363675 37.43887329 70.95213318 C36.38571516 68.18116691 35.34149539 65.40695918 34.29873657 62.63206482 C33.63128282 60.86299022 32.96333155 59.09410323 32.29483032 57.32542419 C31.98332031 56.49935165 31.6718103 55.67327911 31.3508606 54.82217407 C31.05715576 54.05069534 30.76345093 53.27921661 30.46084595 52.48435974 C30.20484619 51.80979233 29.94884644 51.13522491 29.68508911 50.44021606 C28.84877402 48.4043015 27.89595317 46.45739682 26.88858032 44.50120544 C26.55858032 44.50120544 26.22858032 44.50120544 25.88858032 44.50120544 Z M-37.20126343 86.96214294 C-42.89613006 94.53200656 -45.73121092 103.04938903 -45.11141968 112.50120544 C-43.04778968 122.44562719 -38.30477519 131.29594355 -30.11141968 137.50120544 C-21.07667408 142.82525196 -11.51516417 144.33168924 -1.28329468 141.80198669 C8.10081815 138.39089047 15.49596745 132.57149751 19.88858032 123.50120544 C20.98052519 120.19274682 21.95539632 116.85758563 22.88858032 113.50120544 C18.93761054 113.45180882 14.98676003 113.41548789 11.03555298 113.39134216 C9.02946672 113.37632437 7.02346708 113.35091564 5.01748657 113.32542419 C3.13223267 113.31575623 3.13223267 113.31575623 1.20889282 113.30589294 C0.04631958 113.29541931 -1.11625366 113.28494568 -2.3140564 113.27415466 C-5.25052247 113.20858548 -5.25052247 113.20858548 -7.11141968 115.50120544 C-14.21801866 116.1780244 -14.21801866 116.1780244 -17.17391968 113.93870544 C-18.56267851 110.32793247 -18.22955216 108.18446538 -17.11141968 104.50120544 C-15.7753064 103.74710388 -15.7753064 103.74710388 -14.41220093 102.97776794 C-9.48196519 99.91858802 -7.62499942 94.4454467 -5.23641968 89.37620544 C-4.73884155 88.36171326 -4.24126343 87.34722107 -3.72860718 86.30198669 C-1.15299807 81.60413411 -1.15299807 81.60413411 -0.11141968 76.50120544 C-13.95419022 72.36194563 -27.57920549 76.5193287 -37.20126343 86.96214294 Z M135.88858032 75.50120544 C136.56915136 80.999503 138.26542669 85.9451422 140.13858032 91.12620544 C140.42604126 91.97183044 140.7135022 92.81745544 141.00967407 93.68870544 C142.83525975 98.74294702 144.38039501 101.33942447 148.88858032 104.50120544 C149.93297965 108.1566031 150.32531722 110.36568951 148.95108032 113.93870544 C146.20402837 116.01980541 144.19656064 115.94118268 140.82608032 115.93479919 C138.30231518 115.37000498 137.47754922 114.52506785 135.88858032 112.50120544 C135.73184204 110.42723083 135.73184204 110.42723083 135.94326782 108.03636169 C136.13245479 101.76469968 134.25726347 96.72647634 132.01358032 90.93870544 C131.64877563 89.94290466 131.28397095 88.94710388 130.90811157 87.92112732 C129.42804112 82.86512404 129.42804112 82.86512404 125.88858032 79.50120544 C117.63856888 84.84067985 112.12534384 91.5925181 109.36123657 101.12620544 C107.41546671 110.90329697 109.30227415 119.46061017 114.36123657 127.98167419 C119.71930694 135.54377351 127.01188178 140.02242925 135.88858032 142.50120544 C146.60508936 143.73373372 155.77444305 142.13791441 164.45889282 135.55198669 C172.28354009 128.36002543 176.45665907 119.75719213 176.95498657 109.12620544 C176.70823729 99.37235149 172.81878074 91.44581942 166.32608032 84.25120544 C159.30403945 77.68855042 151.65816183 75.21755266 142.13858032 75.18870544 C140.05413929 75.26766154 137.96990979 75.36265541 135.88858032 75.50120544 Z M7.88858032 81.50120544 C6.23561913 84.58076833 4.59247861 87.66546624 2.95108032 90.75120544 C2.4825061 91.62390076 2.01393188 92.49659607 1.53115845 93.39573669 C1.08320923 94.24007263 0.63526001 95.08440857 0.17373657 95.95433044 C-0.44682617 97.11690369 -0.44682617 97.11690369 -1.07992554 98.30296326 C-2.30517681 100.73068658 -2.30517681 100.73068658 -3.11141968 104.50120544 C5.46858032 104.50120544 14.04858032 104.50120544 22.88858032 104.50120544 C20.01240372 94.9139501 17.48481128 87.15015722 8.88858032 81.50120544 C8.55858032 81.50120544 8.22858032 81.50120544 7.88858032 81.50120544 Z " fill="#F77B68" transform="translate(62.111419677734375,47.49879455566406)"/>
<path d="M0 0 C11.86513867 7.16262499 20.63441804 17.85617627 24.65234375 31.1796875 C27.63073096 47.56962897 25.55358315 62.46301725 16.16015625 76.34375 C7.83904179 87.46202556 -3.88858562 94.67549999 -17.6875 96.8125 C-33.54720143 97.7069734 -47.50722607 95.28621939 -59.875 84.5625 C-70.53191756 74.38998779 -76.69149303 63.24343309 -77.890625 48.27734375 C-78.17399052 32.99921927 -73.57636967 20.22507228 -63.09375 9.1484375 C-53.43027108 -0.23266703 -53.43027108 -0.23266703 -46.6875 -1.1875 C-44.84834951 2.59898629 -44.30301937 4.79442955 -45.6875 8.8125 C-47.9453125 10.6640625 -47.9453125 10.6640625 -50.8125 12.4375 C-58.80872864 17.96216706 -63.83460003 25.57882808 -66.25390625 35.015625 C-68.25255753 47.90782608 -66.84948076 59.21160383 -59.21484375 69.8515625 C-52.95482763 77.88871875 -43.68539937 84.72168636 -33.36401367 86.12939453 C-19.48469941 87.00361564 -8.88954566 85.40990434 2.125 76.375 C10.8747448 67.94181616 15.36536984 57.2944642 15.625 45.1875 C15.51568763 33.56395178 11.111316 24.18773906 3.34765625 15.65234375 C-5.71234562 6.88724249 -14.59133393 4.40900648 -26.9375 4.5 C-30.19130617 4.56373548 -33.43555225 4.67547973 -36.6875 4.8125 C-37.6775 1.8425 -38.6675 -1.1275 -39.6875 -4.1875 C-26.56102406 -9.25955407 -12.19399887 -6.1396358 0 0 Z " fill="#385F7E" transform="translate(230.6875,111.1875)"/>
<path d="M0 0 C-0.61449997 3.33822957 -1.34560829 6.02209492 -3 9 C-3.78890625 8.84144531 -4.5778125 8.68289062 -5.390625 8.51953125 C-18.99517491 6.56130058 -31.65672693 6.77218725 -43.1875 14.75 C-51.56042904 21.51924304 -58.01493107 30.18339989 -60 41 C-60.85187386 54.00745849 -58.90493603 64.45433206 -51 75 C-44.98397517 81.58074746 -36.21469469 88.299372 -27.01391602 89.19287109 C-16.08741543 89.58238662 -6.6897729 89.77100219 3 84 C4.11568359 83.34837891 4.11568359 83.34837891 5.25390625 82.68359375 C14.37214013 76.61053855 19.80484039 66.53967447 22.1875 56.0625 C22.455625 54.721875 22.72375 53.38125 23 52 C25.97 52 28.94 52 32 52 C34.17440898 56.34881796 31.29012577 62.550074 30 67 C25.35014638 79.69628 14.67258778 90.54320058 2.5 96.3125 C-11.42393946 101.87729913 -26.15684234 101.68691882 -40 96 C-53.52326568 90.14278939 -62.93145656 79.11192871 -68.4375 65.625 C-72.15516195 53.29716859 -71.8195867 37.55359123 -66 26 C-58.80535109 12.69702293 -48.90682942 3.28321703 -34.3125 -1.4375 C-22.72446759 -4.38533281 -11.30868931 -4.0251267 0 0 Z " fill="#2A4D66" transform="translate(70,108)"/>
<path d="M0 0 C15.11392071 -0.67206169 26.33879184 -0.41803907 38.3125 9.9375 C45.80862224 16.87500247 51.52790928 26.79153791 52.203125 37.1015625 C52.38480273 50.75767157 49.20540936 61.70713671 39.625 71.8125 C31.16013283 79.71924406 21.79630388 83.58753076 10.25 83.5 C9.37110107 83.49427979 8.49220215 83.48855957 7.58666992 83.48266602 C-3.66545455 83.17514039 -12.98844475 78.95004619 -21 71 C-30.53538379 59.45716699 -32.80639688 48.74336936 -32 34 C-30.24976327 22.42274604 -23.40911806 13.4653037 -14.33203125 6.4609375 C-12.14988591 5.09389837 -10.51741214 4.42824942 -8 4 C-6.60776774 6.21119241 -6.01310615 7.75098316 -5.875 10.375 C-7.15608164 13.36419049 -8.05659487 13.90170397 -10.6875 15.6875 C-16.72940086 19.89622088 -19.68646271 25.71615678 -22.375 32.4375 C-24.3595476 43.74942132 -22.55562278 53.31485745 -15.9375 62.8125 C-11.2584895 68.4536447 -4.27773444 72.71166283 3 74 C13.67748909 74.96317556 22.57207827 73.72735675 31.34765625 67.2734375 C38.08890114 61.14961504 41.82897775 53.38174325 42.9375 44.375 C43.42946535 33.87973931 39.90096339 25.09663436 32.9375 17.25 C24.72220075 9.67072392 15.52462949 8.44943571 4.859375 8.82421875 C3.91578125 8.88222656 2.9721875 8.94023438 2 9 C0.4375 6.1875 0.4375 6.1875 -1 3 C-0.67 2.01 -0.34 1.02 0 0 Z " fill="#D8EAFC" transform="translate(195,115)"/>
<path d="M0 0 C1.34771484 -0.01836914 1.34771484 -0.01836914 2.72265625 -0.03710938 C7.2903227 -0.04722976 10.98603448 -0.00320769 15.125 2.1875 C13.25 8.0625 13.25 8.0625 12.125 9.1875 C10.04630879 9.14512097 7.96756418 9.09720911 5.88989258 9.01953125 C-5.50169856 8.65696853 -14.52123237 9.90035913 -23.3125 17.8125 C-29.3042122 24.39090068 -32.43498395 32.57729539 -33.125 41.375 C-32.46277047 51.47400031 -28.51238585 59.98181202 -21.1875 66.9375 C-13.53199068 73.16740237 -6.07541958 74.88924901 3.7265625 74.5703125 C11.87805571 73.65209832 19.32290062 70.01455464 25.125 64.1875 C29.4865285 58.38201875 32.20550648 52.15829227 34.125 45.1875 C36.765 45.1875 39.405 45.1875 42.125 45.1875 C41.79548065 55.07308057 37.72916822 64.31944278 30.94921875 71.59765625 C21.79784174 79.57326747 12.3132715 83.77067229 0.25 83.625 C-0.63405518 83.61670166 -1.51811035 83.60840332 -2.42895508 83.59985352 C-14.50174131 83.28675218 -22.17739945 78.54819911 -30.81640625 70.34375 C-39.65822167 61.02451474 -42.27010914 50.34660549 -42.15234375 37.82421875 C-41.29535028 26.58674106 -35.01965793 16.53067993 -27.0078125 8.82421875 C-18.61764213 2.38560816 -10.29662046 0.00732334 0 0 Z " fill="#D8EAFC" transform="translate(50.875,114.8125)"/>
<path d="M0 0 C1.83915049 3.78648629 2.38448063 5.98192955 1 10 C-1.2578125 11.8515625 -1.2578125 11.8515625 -4.125 13.625 C-12.12122864 19.14966706 -17.14710003 26.76632808 -19.56640625 36.203125 C-21.56505753 49.09532608 -20.16198076 60.39910383 -12.52734375 71.0390625 C-8.7121424 75.9373517 -4.49140222 79.07976227 0.6796875 82.390625 C2.97536177 83.98291086 4.9118425 85.70595606 6.9375 87.625 C13.17505991 93.24252413 20.96447586 95.21432797 29 97 C29 97.33 29 97.66 29 98 C13.0101274 98.54168954 -0.64061932 96.62901738 -13.1875 85.75 C-23.84441756 75.57748779 -30.00399303 64.43093309 -31.203125 49.46484375 C-31.48674347 34.17308148 -26.8754371 21.44152365 -16.41796875 10.3359375 C-5.71906355 0 -5.71906355 0 0 0 Z " fill="#2B4D66" transform="translate(184,110)"/>
<path d="M0 0 C3.97103873 2.78969029 7.43963552 5.31890656 9 10 C9.56088796 15.66281112 9.34841375 20.20060696 6 25 C0.84210526 29 0.84210526 29 -2 29 C-2 32.63 -2 36.26 -2 40 C1.465 40.495 1.465 40.495 5 41 C5.6875 43.3125 5.6875 43.3125 6 46 C4.48924637 48.02479599 3.54355581 48.88266616 1.0546875 49.41992188 C-1.29812004 49.47262814 -3.64651912 49.50740088 -6 49.5 C-7.22976562 49.54253906 -7.22976562 49.54253906 -8.484375 49.5859375 C-10.76882281 49.59340302 -12.77683506 49.52823134 -15 49 C-17.125 46.65625 -17.125 46.65625 -18 44 C-17.67 43.01 -17.34 42.02 -17 41 C-13.535 40.505 -13.535 40.505 -10 40 C-10 36.37 -10 32.74 -10 29 C-12.475 28.01 -12.475 28.01 -15 27 C-17.96767029 24.36956497 -19.73949648 22.78151055 -21 19 C-21.32856951 13.19527208 -20.90932718 8.57024812 -17.375 3.8125 C-12.04695974 -0.25363599 -6.55369294 -2.10654416 0 0 Z " fill="#FBC105" transform="translate(123,142)"/>
<path d="M0 0 C0.81320709 -0.00016617 1.62641418 -0.00033234 2.46426392 -0.00050354 C3.38887421 -0.00988449 4.3134845 -0.01926544 5.26611328 -0.02893066 C6.76146103 -0.0120797 6.76146103 -0.0120797 8.28701782 0.00511169 C9.31412872 0.00365646 10.34123962 0.00220123 11.3994751 0.0007019 C13.57328118 0.00236262 15.74709882 0.01394308 17.92080688 0.03465271 C21.24390845 0.06353447 24.56540803 0.0552792 27.88858032 0.04222107 C30.00056723 0.04846066 32.1125491 0.05685332 34.22451782 0.06761169 C35.21736786 0.06467606 36.2102179 0.06174042 37.2331543 0.05871582 C43.91188701 0.14971687 47.48671591 1.03613407 52.26358032 5.93870544 C53.88858032 8.50120544 53.88858032 8.50120544 53.70108032 10.75120544 C52.88858032 12.50120544 52.88858032 12.50120544 51.88858032 13.50120544 C50.36266924 13.60977198 48.83228014 13.65696225 47.30264282 13.67698669 C46.3719397 13.70083435 45.44123657 13.72468201 44.48233032 13.74925232 C42.51119297 13.79204675 40.53977213 13.82339187 38.56826782 13.84300232 C37.16834595 13.88457458 37.16834595 13.88457458 35.74014282 13.92698669 C34.88243286 13.94156921 34.0247229 13.95615173 33.14102173 13.97117615 C30.15777976 14.6731725 29.55146788 16.01104473 27.88858032 18.50120544 C23.11406126 20.70590983 18.54981447 20.86713473 13.38858032 20.87620544 C12.65510376 20.90069763 11.9216272 20.92518982 11.16592407 20.95042419 C5.94394767 20.97844911 3.03713943 19.9191228 -1.11141968 16.50120544 C-3.6924932 13.37674802 -4.98569384 11.39924716 -5.54891968 7.37620544 C-4.98007977 3.63811465 -3.90848954 0.92779103 0 0 Z " fill="#477A9D" transform="translate(62.111419677734375,47.49879455566406)"/>
<path d="M0 0 C2.97 0 5.94 0 9 0 C11.17440898 4.34881796 8.29012577 10.550074 7 15 C2.61353071 26.97711732 -7.1795298 37.34120092 -18.42578125 43.28125 C-28.32023232 47.815532 -35.34228631 47.61773079 -45.6875 44.2890625 C-50.49709323 42.41740476 -54.73695279 39.88693942 -59 37 C-58.67 36.34 -58.34 35.68 -58 35 C-56.81277344 35.48146484 -56.81277344 35.48146484 -55.6015625 35.97265625 C-45.11466943 38.96403681 -32.20590512 38.387194 -22.47265625 33.47265625 C-21.65667969 32.98667969 -20.84070313 32.50070313 -20 32 C-19.25621094 31.56558594 -18.51242188 31.13117188 -17.74609375 30.68359375 C-8.62785987 24.61053855 -3.19515961 14.53967447 -0.8125 4.0625 C-0.544375 2.721875 -0.27625 1.38125 0 0 Z " fill="#39607E" transform="translate(93,160)"/>
<path d="M0 0 C5.63984958 0.12983826 8.75279233 1.77600398 12.6875 5.87109375 C16.94322321 10.71923298 17.60407818 14.50236867 17.53125 20.73828125 C16.95839618 26.10878583 14.65615002 29.93084592 10.9375 33.75 C5.21842457 37.20804561 -1.15463033 38.3612235 -7.75 37.375 C-10.8125 35.75 -10.8125 35.75 -12.75 33.375 C-13.4189611 29.80720746 -13.23010374 28.1473408 -11.3125 25.0625 C-8.098509 22.94596934 -5.56013699 22.7709382 -1.7734375 22.55078125 C0.31850732 22.49413214 0.31850732 22.49413214 2.25 21.375 C2.25 19.065 2.25 16.755 2.25 14.375 C1.156875 14.2925 0.06375 14.21 -1.0625 14.125 C-4.75 13.375 -4.75 13.375 -6.75 11.75 C-8.19116288 8.32723815 -7.60557966 5.92894628 -6.75 2.375 C-4.28003576 -0.09496424 -3.41102667 0.05168222 0 0 Z " fill="#477A9E" transform="translate(208.75,57.625)"/>
<path d="M0 0 C7.45462735 1.29213541 13.75774754 9.07048804 18 15 C22.67508017 22.38450163 24.82414434 30.37305899 26 39 C25 40 25 40 22.93359375 40.09765625 C22.10988281 40.08605469 21.28617188 40.07445312 20.4375 40.0625 C19.61121094 40.05347656 18.78492187 40.04445312 17.93359375 40.03515625 C17.29550781 40.02355469 16.65742187 40.01195312 16 40 C15.85304688 39.24976563 15.70609375 38.49953125 15.5546875 37.7265625 C13.25897398 27.25072036 8.72356746 17.07253838 -0.25 10.6875 C-1.1575 10.130625 -2.065 9.57375 -3 9 C-2.5020163 5.26512223 -2.12508244 3.18762365 0 0 Z " fill="#395F7D" transform="translate(77,113)"/>
<path d="M0 0 C4.55555556 0.55555556 4.55555556 0.55555556 6 2 C6.08758003 3.99964982 6.10696576 6.0023611 6.09765625 8.00390625 C6.09443359 9.21884766 6.09121094 10.43378906 6.08789062 11.68554688 C6.07951172 12.96494141 6.07113281 14.24433594 6.0625 15.5625 C6.05798828 16.84576172 6.05347656 18.12902344 6.04882812 19.45117188 C6.03699545 22.63416022 6.02051068 25.81705762 6 29 C8.31 29.33 10.62 29.66 13 30 C13.6875 32.3125 13.6875 32.3125 14 35 C12.48924637 37.02479599 11.54355581 37.88266616 9.0546875 38.41992188 C6.70187996 38.47262814 4.35348088 38.50740088 2 38.5 C0.77023438 38.54253906 0.77023438 38.54253906 -0.484375 38.5859375 C-2.76882281 38.59340302 -4.77683506 38.52823134 -7 38 C-9.125 35.65625 -9.125 35.65625 -10 33 C-9.67 32.01 -9.34 31.02 -9 30 C-5.535 29.505 -5.535 29.505 -2 29 C-2.01047363 28.19256348 -2.02094727 27.38512695 -2.03173828 26.55322266 C-2.07319831 22.91051318 -2.09929438 19.26785325 -2.125 15.625 C-2.14175781 14.35398438 -2.15851563 13.08296875 -2.17578125 11.7734375 C-2.18222656 10.56171875 -2.18867187 9.35 -2.1953125 8.1015625 C-2.20578613 6.98088379 -2.21625977 5.86020508 -2.22705078 4.70556641 C-2 2 -2 2 0 0 Z " fill="#3A607B" transform="translate(115,153)"/>
<path d="M0 0 C14.85 0 29.7 0 45 0 C44.67 2.64 44.34 5.28 44 8 C29.3363293 9.15820248 14.70193082 9.10562899 0 9 C0 6.03 0 3.06 0 0 Z " fill="#F77B68" transform="translate(58,152)"/>
<path d="M0 0 C8.85963671 4.06066682 14.69809447 11.80449517 18.32421875 20.75 C19.44720647 24.48896489 19.75297494 28.10935534 20 32 C17.36 32 14.72 32 12 32 C11.72027344 31.16597656 11.44054687 30.33195312 11.15234375 29.47265625 C8.11786916 20.95466167 4.73457323 13.15638215 -3 8 C-2.45276317 4.62537285 -1.9451 2.91765 0 0 Z " fill="#D7E8F9" transform="translate(73,121)"/>
<path d="M0 0 C1.03543945 0.05027344 1.03543945 0.05027344 2.09179688 0.1015625 C3.14463867 0.12863281 3.14463867 0.12863281 4.21875 0.15625 C5.94785123 0.20330037 7.67624893 0.27504377 9.40429688 0.3515625 C8.41429687 1.8365625 8.41429687 1.8365625 7.40429688 3.3515625 C6.96895047 8.74985789 6.99419516 11.93106028 10.40429688 16.3515625 C11.39461232 17.36115416 12.39303035 18.36295741 13.40429688 19.3515625 C-0.559492 20.21234401 -0.559492 20.21234401 -4.34570312 17.1015625 C-7.20789768 13.60332471 -8.43923172 11.85368794 -8.90820312 7.3515625 C-8.28407447 1.35992738 -5.95150699 -0.11500497 0 0 Z " fill="#365F7E" transform="translate(65.595703125,47.6484375)"/>
<path d="M0 0 C7.4 4.2 7.4 4.2 9 9 C9.56088796 14.66281112 9.34841375 19.20060696 6 24 C0.84210526 28 0.84210526 28 -2 28 C-2.03867188 26.30230469 -2.03867188 26.30230469 -2.078125 24.5703125 C-2.13439626 23.08850257 -2.19174382 21.60673323 -2.25 20.125 C-2.26417969 19.37863281 -2.27835937 18.63226563 -2.29296875 17.86328125 C-2.35986341 15.42861619 -2.35986341 15.42861619 -3 12 C-4.90628782 10.39662601 -4.90628782 10.39662601 -7 10 C-5.76075855 5.04303419 -4.21422242 2.88341534 0 0 Z " fill="#F3DB43" transform="translate(123,143)"/>
<path d="M0 0 C0.33 0 0.66 0 1 0 C1.45576064 6.38064894 0.62866871 10.66372249 -3 16 C-7.66706802 20.79320499 -13.09732267 22.04970047 -19.625 22.375 C-22.86161499 22.2864772 -24.09389836 21.95017638 -27.0625 20.375 C-29 18 -29 18 -29.3125 14.75 C-29.209375 13.8425 -29.10625 12.935 -29 12 C-26 12 -26 12 -24 13 C-17.16555077 13.77490967 -11.65625789 13.04579557 -6 9 C-3.36879201 6.23030738 -1.54855723 3.48425378 0 0 Z " fill="#375F7F" transform="translate(225,73)"/>
<path d="M0 0 C9.9 0 19.8 0 30 0 C30 2.97 30 5.94 30 9 C21.42 9 12.84 9 4 9 C2.68 6.03 1.36 3.06 0 0 Z " fill="#DBECFE" transform="translate(172,60)"/>
<path d="M0 0 C-0.55728913 3.34373475 -1.35173889 6.03312999 -3 9 C-3.78503906 8.83886719 -4.57007812 8.67773438 -5.37890625 8.51171875 C-9.921404 7.8697908 -14.35607078 7.81588613 -18.9375 7.8125 C-19.80568359 7.80025391 -20.67386719 7.78800781 -21.56835938 7.77539062 C-26.77943096 7.76357414 -31.06768142 8.30220871 -36 10 C-34.37810986 5.13432959 -29.79485499 3.81142215 -25.4296875 1.5859375 C-17.03893433 -2.29406909 -8.78812651 -3.42951278 0 0 Z " fill="#3A617F" transform="translate(70,108)"/>
<path d="M0 0 C2.5 2.0625 2.5 2.0625 4 5 C3.94021398 8.46758942 3.60965977 10.88826749 1.9375 13.9375 C-1.26492585 15.69366901 -4.49690726 15.62026592 -8 15 C-10.5 13.4375 -10.5 13.4375 -12 11 C-12.5625 7.5 -12.5625 7.5 -12 4 C-8.48292752 -0.1565402 -5.3086954 -0.86869561 0 0 Z " fill="#2A4D66" transform="translate(209,149)"/>
<path d="M0 0 C2.4375 1.5 2.4375 1.5 4 4 C4.6227188 7.51694594 4.63278358 10.73443285 3 14 C-0.28039596 15.64019798 -3.47914869 15.74234817 -7 15 C-9.5625 12.9375 -9.5625 12.9375 -11 10 C-10.93977486 6.50694211 -10.63658168 4.09633511 -8.875 1.0625 C-5.81547541 -0.6712306 -3.43182475 -0.42145216 0 0 Z " fill="#2A4B64" transform="translate(54,149)"/>
<path d="M0 0 C0.82435547 -0.020625 1.64871094 -0.04125 2.49804688 -0.0625 C3.29146484 -0.06765625 4.08488281 -0.0728125 4.90234375 -0.078125 C5.99083618 -0.09214355 5.99083618 -0.09214355 7.10131836 -0.10644531 C9.63446837 0.35395541 10.53620992 1.20766551 12.0625 3.25 C11.875 5.875 11.875 5.875 11.0625 8.25 C7.64911 9.956695 3.8879714 9.56057559 0.125 9.625 C-0.69935547 9.66238281 -1.52371094 9.69976562 -2.37304688 9.73828125 C-4.66535242 9.77179993 -6.69710998 9.73995982 -8.9375 9.25 C-11.06640625 6.9140625 -11.06640625 6.9140625 -11.9375 4.25 C-11.6075 3.26 -11.2775 2.27 -10.9375 1.25 C-7.53058509 -0.45345745 -3.75482483 0.02337634 0 0 Z " fill="#477A9D" transform="translate(116.9375,181.75)"/>
<path d="M0 0 C1.9375 0.5625 1.9375 0.5625 4 2 C5 5.3125 5 5.3125 5 9 C3.0625 11.9375 3.0625 11.9375 1 14 C-1 13 -1 13 -3 10 C-3.37478243 6.47704517 -3.41127245 4.65118137 -1.5 1.625 C-1.005 1.08875 -0.51 0.5525 0 0 Z " fill="#345A79" transform="translate(208,150)"/>
<path d="M0 0 C1.03253906 0.01353516 1.03253906 0.01353516 2.0859375 0.02734375 C3.76577838 0.05067487 5.44543746 0.08653674 7.125 0.125 C4.53135046 2.71864954 2.26443651 3.1141059 -1.25 4.125 C-4.98549466 5.20433029 -8.46337881 6.24272624 -11.875 8.125 C-12.535 6.145 -13.195 4.165 -13.875 2.125 C-9.17038677 0.26367327 -4.9992304 -0.1259496 0 0 Z " fill="#2B4D67" transform="translate(204.875,104.875)"/>
<path d="M0 0 C3 1 3 1 4 3 C4.203125 4.875 4.203125 4.875 4.25 7 C4.27578125 7.70125 4.3015625 8.4025 4.328125 9.125 C4.21984375 9.74375 4.1115625 10.3625 4 11 C3.01 11.66 2.02 12.32 1 13 C-1.0625 11.4375 -1.0625 11.4375 -3 9 C-2.78571429 2.78571429 -2.78571429 2.78571429 0 0 Z " fill="#385D7B" transform="translate(54,150)"/>
</svg>
